<svg width="483" height="244" viewBox="0 0 483 244" fill="none" xmlns="http://www.w3.org/2000/svg">
<g clip-path="url(#clip0_350_8289)">
<path fill-rule="evenodd" clip-rule="evenodd" d="M249.353 130.984C249.354 137.079 249.357 143.174 249.359 149.269C249.37 178.939 249.382 208.609 249.273 238.278C249.273 242.29 250.429 243.432 254.418 243.416C273.191 243.341 291.96 243.345 310.73 243.349C327.413 243.353 344.096 243.357 360.783 243.305C419.831 243.115 469.935 201.014 480.43 142.946C492.224 77.6784 448.342 14.0918 383.183 2.32588C375.458 0.93046 367.495 0.185172 359.643 0.137601C334.246 -0.0353785 308.849 -0.00707848 283.446 0.0212283C273.919 0.0318448 264.391 0.0424623 254.861 0.0424623C251.21 0.0424623 249.378 1.85014 249.368 5.46554V110.31H383.181L339.629 61.9478L354.992 48.1129L414.082 113.729C416.814 116.763 417.505 121.121 415.844 124.851C414.184 128.581 410.483 130.984 406.4 130.984H249.353ZM242.581 130.984C237.796 193.651 185.202 243.369 121.468 243.354C57.74 243.324 5.13595 193.614 0.354146 130.984H242.581ZM242.423 110.31C236.669 48.7188 184.6 0.119415 121.689 0.0595993C58.5419 -0.0151856 6.29583 48.5828 0.52852 110.31H242.423ZM0.00109899 121.155C0.000489448 121.299 0.00013329 121.443 3.09404e-05 121.588C-0.000112676 121.79 0.000243732 121.993 0.00109899 122.195V121.155Z" fill="#007A40"/>
</g>
<defs>
<clipPath id="clip0_350_8289">
<rect width="483" height="244" fill="white"/>
</clipPath>
</defs>
</svg>
